<?xml version="1.0" standalone="no"?>
<!DOCTYPE svg PUBLIC "-//W3C//DTD SVG 20010904//EN"
 "http://www.w3.org/TR/2001/REC-SVG-20010904/DTD/svg10.dtd">
<svg version="1.0" xmlns="http://www.w3.org/2000/svg"
 width="1080.000000pt" height="1080.000000pt" viewBox="0 0 1080.000000 1080.000000"
 preserveAspectRatio="xMidYMid meet">

<g transform="translate(0.000000,1080.000000) scale(0.100000,-0.100000)"
fill="#FFFFFF" stroke="none">
<path d="M5127 8928 c-363 -16 -785 -104 -1143 -239 -929 -347 -1688 -1029
-2135 -1915 -127 -253 -168 -358 -273 -704 -61 -200 -109 -466 -131 -725 -116
-1346 467 -2645 1560 -3472 524 -396 1174 -660 1839 -747 581 -76 1156 -21
1736 166 776 250 1491 781 1976 1468 826 1169 943 2722 301 4005 -370 741
-984 1362 -1718 1738 -413 211 -825 339 -1304 403 -148 20 -510 31 -708 22z
m688 -287 c511 -68 980 -232 1415 -494 813 -490 1396 -1263 1650 -2187 104
-382 145 -849 110 -1260 -72 -834 -432 -1619 -1019 -2223 -608 -624 -1343
-988 -2211 -1093 -201 -25 -619 -25 -820 0 -437 53 -809 162 -1195 351 -364
179 -666 393 -958 683 -485 480 -810 1044 -978 1700 -78 305 -110 563 -110
897 0 379 39 655 142 1014 403 1403 1633 2448 3079 2615 203 24 215 24 490 20
180 -2 299 -9 405 -23z"/>
<path d="M4964 7513 c32 -189 8 -440 -70 -720 -107 -385 -352 -843 -696 -1300
-159 -211 -189 -248 -202 -248 -7 0 -14 37 -18 100 -12 172 -38 323 -80 455
-23 74 -98 240 -107 240 -4 0 -12 -40 -19 -88 -24 -181 -76 -312 -347 -882
-188 -396 -252 -602 -276 -897 -41 -512 177 -947 661 -1319 215 -166 544 -383
554 -366 2 4 -11 45 -30 92 -53 131 -71 186 -101 305 -24 99 -27 128 -27 285
0 151 3 187 23 260 35 133 106 290 193 428 134 212 155 248 203 337 61 114
144 322 185 468 19 64 39 116 45 114 16 -6 92 -188 117 -280 19 -69 22 -109
23 -249 0 -107 4 -167 10 -165 21 7 149 208 205 322 132 270 190 537 190 872
0 90 3 163 7 163 43 0 388 -342 495 -490 254 -353 406 -745 470 -1210 16 -122
16 -449 0 -565 -32 -229 -92 -446 -172 -622 -16 -35 -25 -63 -20 -63 30 0 352
215 514 343 117 93 348 320 428 423 174 220 315 498 377 739 62 244 71 528 25
810 -18 107 -62 278 -103 395 -158 456 -467 941 -823 1293 -85 84 -119 107
-103 70 22 -51 56 -198 65 -284 16 -146 -14 -339 -72 -453 -26 -52 -86 -126
-102 -126 -6 0 -32 66 -60 153 -114 363 -269 679 -459 937 -268 364 -492 563
-814 724 -92 46 -97 46 -89 -1z"/>
<path d="M5035 3791 c-136 -78 -133 -275 5 -349 93 -49 217 -14 267 76 45 79
38 163 -19 228 -69 79 -165 96 -253 45z"/>
<path d="M4592 3684 c-13 -9 -28 -28 -33 -42 -21 -56 99 -233 226 -333 36 -28
78 -72 93 -98 27 -46 27 -47 30 -263 l3 -218 120 0 119 0 0 27 c0 19 -16 40
-62 82 -73 67 -138 162 -138 203 0 36 24 84 49 98 39 20 95 12 124 -18 15 -15
27 -33 27 -40 0 -7 5 -12 10 -12 6 0 10 8 10 18 0 30 54 97 93 115 40 19 108
22 140 6 101 -52 136 -181 71 -259 l-25 -29 61 -32 c35 -18 84 -57 115 -91 54
-58 54 -58 69 -36 22 30 20 71 -7 149 -79 231 -240 350 -610 449 -43 11 -96
29 -117 40 -70 35 -160 122 -218 210 -52 77 -60 85 -92 88 -20 2 -45 -4 -58
-14z"/>
<path d="M5605 3578 c-43 -25 -85 -93 -85 -138 0 -36 40 -110 71 -133 69 -50
185 -23 227 52 79 140 -75 298 -213 219z"/>
<path d="M6053 3499 c-11 -4 -37 -34 -57 -67 -41 -67 -106 -131 -163 -160 -21
-11 -85 -31 -142 -45 -57 -15 -106 -28 -108 -31 -3 -2 15 -29 39 -58 67 -83
106 -157 130 -251 22 -82 22 -87 5 -121 l-17 -36 60 0 60 0 0 160 c0 123 4
169 16 198 9 21 56 77 113 132 138 133 179 212 137 259 -21 24 -46 30 -73 20z"/>
<path d="M5295 3156 c-50 -22 -70 -52 -70 -106 0 -57 27 -92 82 -111 68 -22
143 35 143 110 0 84 -81 140 -155 107z"/>
<path d="M5028 3088 c-8 -7 -18 -20 -21 -29 -9 -27 49 -114 113 -170 82 -73
90 -93 90 -233 l0 -116 131 0 130 0 -3 95 c-2 52 0 95 3 95 15 0 67 -68 94
-123 32 -67 59 -82 90 -51 35 36 -12 150 -93 227 -59 54 -133 89 -250 119 -69
17 -91 28 -132 65 -27 24 -59 61 -71 81 -34 54 -51 63 -81 40z"/>
</g>
</svg>
